<svg width="16" height="16" viewBox="0 0 16 16" fill="none" xmlns="http://www.w3.org/2000/svg">
<path d="M14.7506 9.00068C14.7494 10.1275 14.3013 11.2078 13.5045 12.0046C12.7077 12.8014 11.6274 13.2495 10.5006 13.2507H5.00059C4.80168 13.2507 4.61091 13.1717 4.47026 13.031C4.32961 12.8904 4.25059 12.6996 4.25059 12.5007C4.25059 12.3018 4.32961 12.111 4.47026 11.9703C4.61091 11.8297 4.80168 11.7507 5.00059 11.7507H10.5006C11.2299 11.7507 11.9294 11.4609 12.4451 10.9452C12.9609 10.4295 13.2506 9.73002 13.2506 9.00068C13.2506 8.27133 12.9609 7.57186 12.4451 7.05613C11.9294 6.54041 11.2299 6.25068 10.5006 6.25068H3.81309L5.53309 7.97005C5.67399 8.11095 5.75314 8.30204 5.75314 8.5013C5.75314 8.70056 5.67399 8.89165 5.53309 9.03255C5.39219 9.17345 5.2011 9.2526 5.00184 9.2526C4.80258 9.2526 4.61149 9.17345 4.47059 9.03255L1.47059 6.03255C1.40067 5.96287 1.34519 5.88008 1.30734 5.78891C1.26949 5.69775 1.25 5.60001 1.25 5.5013C1.25 5.40259 1.26949 5.30485 1.30734 5.21369C1.34519 5.12252 1.40067 5.03973 1.47059 4.97005L4.47059 1.97005C4.61149 1.82915 4.80258 1.75 5.00184 1.75C5.2011 1.75 5.39219 1.82915 5.53309 1.97005C5.67399 2.11095 5.75314 2.30204 5.75314 2.5013C5.75314 2.70056 5.67399 2.89165 5.53309 3.03255L3.81309 4.75068H10.5006C11.6274 4.752 12.7076 5.20019 13.5043 5.99693C14.3011 6.79368 14.7493 7.87391 14.7506 9.00068Z" fill="#202327"/>
</svg>
