<svg width="30" height="30" viewBox="0 0 30 30" fill="none" xmlns="http://www.w3.org/2000/svg">
<path d="M12.5 21.2188V20H17.5L17.4688 21.2188C17.4688 21.375 17.4062 21.625 17.3125 21.75L16.7812 22.5625C16.625 22.8125 16.25 23 15.9375 23H14.0312C13.7188 23 13.3438 22.8125 13.1875 22.5625L12.6562 21.75C12.5312 21.5938 12.5 21.4062 12.5 21.2188ZM15 7C18.0312 7.03125 20.5 9.46875 20.5 12.5C20.5 13.9062 19.9688 15.1562 19.125 16.0938C18.5938 16.6875 17.8125 17.9375 17.5 18.9688C17.5 18.9688 17.5 18.9688 17.5 19H12.4688C12.4688 18.9688 12.4688 18.9688 12.4688 18.9688C12.1562 17.9375 11.375 16.6875 10.8438 16.0938C10 15.125 9.5 13.875 9.5 12.5C9.5 9.59375 11.8125 7.03125 15 7ZM18 15.1562C18.625 14.4062 19 13.4688 19 12.5C19 10.3125 17.1875 8.5 14.9688 8.5C12.5 8.53125 11 10.5625 11 12.5C11 13.4688 11.3438 14.4062 11.9688 15.1562C12.4688 15.6875 13.0625 16.5938 13.5 17.5H16.4688C16.9062 16.5938 17.5 15.6875 18 15.1562ZM14.5 9.5C14.75 9.5 15 9.75 15 10.0312C15 10.2812 14.75 10.5 14.5 10.5C13.6562 10.5 13 11.1875 13 12C13 12.2812 12.75 12.5 12.5 12.5C12.2188 12.5 12 12.2812 12 12C12 10.625 13.0938 9.5 14.5 9.5Z" fill="#0B0E0C"/>
</svg>
