<svg width="16" height="16" viewBox="0 0 16 16" fill="none" xmlns="http://www.w3.org/2000/svg">
<path d="M11.5326 8.53255L6.53255 13.5326C6.39165 13.6734 6.20056 13.7526 6.0013 13.7526C5.80204 13.7526 5.61095 13.6734 5.47005 13.5326C5.32915 13.3917 5.25 13.2006 5.25 13.0013C5.25 12.802 5.32915 12.6109 5.47005 12.4701L9.93943 8.00193L5.4713 3.53255C5.40154 3.46279 5.3462 3.37996 5.30844 3.28881C5.27068 3.19766 5.25125 3.09996 5.25125 3.0013C5.25125 2.90264 5.27068 2.80494 5.30844 2.71379C5.3462 2.62264 5.40154 2.53982 5.4713 2.47005C5.54107 2.40029 5.62389 2.34495 5.71504 2.30719C5.80619 2.26943 5.90389 2.25 6.00255 2.25C6.10121 2.25 6.19891 2.26943 6.29006 2.30719C6.38121 2.34495 6.46404 2.40029 6.5338 2.47005L11.5338 7.47005C11.6036 7.53981 11.659 7.62267 11.6968 7.71388C11.7345 7.80509 11.7539 7.90285 11.7538 8.00156C11.7537 8.10027 11.7341 8.19799 11.6961 8.28911C11.6581 8.38023 11.6026 8.46296 11.5326 8.53255Z" fill="#202327"/>
</svg>
