<svg width="140" height="40" viewBox="0 0 140 40" fill="none" xmlns="http://www.w3.org/2000/svg">
<g clip-path="url(#clip0_2466_25559)">
<path d="M16.1946 26.507V33.4757C16.1946 36.0489 18.2788 38.1282 20.847 38.1282V26.502C20.847 26.0328 21.415 25.7958 21.7508 26.1267L26.6798 31.0557C28.4973 32.8732 31.4459 32.8732 33.2634 31.0557L25.0451 22.8374C24.7142 22.5015 24.9463 21.9336 25.4204 21.9336H32.3892C34.9574 21.9336 37.0416 19.8494 37.0416 17.2811H25.4155C24.9463 17.2811 24.7092 16.7132 25.0401 16.3773L29.9691 11.4483C31.7866 9.63082 31.7866 6.68231 29.9691 4.8648L21.7508 13.0831C21.4199 13.414 20.847 13.1819 20.847 12.7077V5.73898C20.847 3.17076 18.7628 1.08655 16.1946 1.08655V12.7127C16.1946 13.1819 15.6266 13.4189 15.2908 13.088L10.3618 8.15903C8.54426 6.34152 5.59575 6.34152 3.77824 8.15903L11.9965 16.3773C12.3324 16.7132 12.0953 17.2811 11.6212 17.2811H4.65243C2.08421 17.2811 0 19.3654 0 21.9336H11.6261C12.0953 21.9336 12.3324 22.5015 12.0015 22.8374L7.07248 27.7664C5.25497 29.5839 5.25497 32.5324 7.07248 34.3499L15.2908 26.1316C15.6217 25.8007 16.1946 26.0328 16.1946 26.507Z" fill="#3FCB54"/>
<path d="M104.655 4.73639C104.655 2.11878 102.521 0 99.8938 0V31.5841C102.521 31.5841 104.655 29.4654 104.655 26.8478V4.73639Z" fill="#3FCB54"/>
<path fill-rule="evenodd" clip-rule="evenodd" d="M54.387 35.2982V28.6258C56.1748 29.8654 58.3479 30.5964 60.6939 30.5964C66.7885 30.5964 71.7323 25.6772 71.7323 19.6123C71.7323 13.5474 66.7885 8.62823 60.6939 8.62823C54.5993 8.62823 49.6555 13.5424 49.6555 19.6074V40C52.2682 40 54.387 37.8911 54.387 35.2932V35.2982ZM60.6939 13.335C57.212 13.335 54.387 16.1452 54.387 19.6123C54.387 23.0794 57.212 25.8896 60.6939 25.8896C64.1758 25.8896 67.0009 23.0794 67.0009 19.6123C67.0009 16.1452 64.1758 13.335 60.6939 13.335Z" fill="#3FCB54"/>
<path fill-rule="evenodd" clip-rule="evenodd" d="M96.16 19.4345C96.1551 19.0295 96.1452 18.6245 96.0909 18.2195C95.4044 12.8115 90.7618 8.62823 85.1414 8.62823C79.0468 8.62823 74.103 13.5474 74.103 19.6123C74.103 25.6772 79.0468 30.5964 85.1414 30.5964C87.6898 30.5964 90.0358 29.737 91.9027 28.2949C92.6633 29.8852 94.2931 30.9865 96.1798 30.9865V20.8223L96.16 19.4345ZM78.8344 19.6123C78.8344 16.1452 81.6595 13.335 85.1414 13.335C88.6233 13.335 91.4483 16.1452 91.4483 19.6123C91.4483 23.0794 88.6233 25.8896 85.1414 25.8896C81.6595 25.8896 78.8344 23.0794 78.8344 19.6123Z" fill="#3FCB54"/>
<path d="M117.437 13.335C115.041 13.335 113.1 15.2661 113.1 17.6516V31.3767C110.488 31.3767 108.369 29.2678 108.369 26.67V17.6516C108.369 12.6682 112.429 8.63316 117.437 8.63316C120.094 8.63316 122.479 9.76911 124.139 11.5767C125.798 9.76911 128.184 8.63316 130.841 8.63316C135.849 8.63316 139.909 12.6732 139.909 17.6516V26.67C139.909 29.2678 137.79 31.3767 135.177 31.3767V17.6516C135.177 15.271 133.236 13.335 130.841 13.335C128.445 13.335 126.509 15.2611 126.505 17.6417V26.67C126.505 29.2678 124.386 31.3767 121.773 31.3767V17.6417C121.773 15.2611 119.827 13.335 117.437 13.335Z" fill="#3FCB54"/>
</g>
<defs>
<clipPath id="clip0_2466_25559">
<rect width="140" height="40" fill="white"/>
</clipPath>
</defs>
</svg>
