<svg width="16" height="16" viewBox="0 0 16 16" fill="none" xmlns="http://www.w3.org/2000/svg">
<path d="M14.5315 13.4703L11.5634 10.5009C12.4533 9.34119 12.8688 7.88639 12.7256 6.4316C12.5823 4.97682 11.8911 3.631 10.792 2.66713C9.69301 1.70327 8.26849 1.19355 6.80746 1.24137C5.34642 1.28918 3.95828 1.89096 2.92462 2.92462C1.89096 3.95828 1.28918 5.34642 1.24137 6.80746C1.19355 8.26849 1.70327 9.69301 2.66713 10.792C3.631 11.8911 4.97682 12.5823 6.4316 12.7256C7.88639 12.8688 9.34119 12.4533 10.5009 11.5634L13.4715 14.5346C13.5413 14.6044 13.6241 14.6597 13.7153 14.6975C13.8064 14.7353 13.9041 14.7547 14.0028 14.7547C14.1014 14.7547 14.1991 14.7353 14.2903 14.6975C14.3814 14.6597 14.4643 14.6044 14.534 14.5346C14.6038 14.4649 14.6591 14.3821 14.6969 14.2909C14.7346 14.1997 14.7541 14.1021 14.7541 14.0034C14.7541 13.9047 14.7346 13.807 14.6969 13.7159C14.6591 13.6247 14.6038 13.5419 14.534 13.4721L14.5315 13.4703ZM2.75089 7.00089C2.75089 6.16032 3.00015 5.33863 3.46715 4.63972C3.93414 3.94081 4.5979 3.39608 5.37449 3.0744C6.15107 2.75273 7.00561 2.66857 7.83003 2.83255C8.65444 2.99654 9.41172 3.40131 10.0061 3.99569C10.6005 4.59006 11.0052 5.34734 11.1692 6.17176C11.3332 6.99618 11.2491 7.85071 10.9274 8.6273C10.6057 9.40388 10.061 10.0676 9.36206 10.5346C8.66316 11.0016 7.84146 11.2509 7.00089 11.2509C5.87408 11.2497 4.79375 10.8016 3.99697 10.0048C3.20019 9.20804 2.75205 8.12771 2.75089 7.00089Z" fill="#202327"/>
</svg>
