<svg width="112" height="32" viewBox="0 0 112 32" fill="none" xmlns="http://www.w3.org/2000/svg">
<path d="M12.9557 21.2056V26.7806C12.9557 28.8391 14.623 30.5025 16.6776 30.5025V21.2016C16.6776 20.8263 17.132 20.6366 17.4007 20.9013L21.3439 24.8445C22.7979 26.2986 25.1567 26.2986 26.6107 24.8445L20.0361 18.2699C19.7713 18.0012 19.957 17.5469 20.3363 17.5469H25.9113C27.9659 17.5469 29.6333 15.8795 29.6333 13.8249H20.3324C19.957 13.8249 19.7674 13.3705 20.0321 13.1019L23.9753 9.15866C25.4293 7.70466 25.4293 5.34585 23.9753 3.89184L17.4007 10.4665C17.1359 10.7312 16.6776 10.5455 16.6776 10.1662V4.59118C16.6776 2.53661 15.0102 0.869243 12.9557 0.869243V10.1701C12.9557 10.5455 12.5013 10.7352 12.2326 10.4704L8.28942 6.52723C6.83541 5.07322 4.4766 5.07322 3.0226 6.52723L9.59723 13.1019C9.86591 13.3705 9.67626 13.8249 9.29695 13.8249H3.72194C1.66737 13.8249 0 15.4923 0 17.5469H9.3009C9.67626 17.5469 9.86591 18.0012 9.60119 18.2699L5.65798 22.2131C4.20398 23.6671 4.20398 26.0259 5.65798 27.4799L12.2326 20.9053C12.4973 20.6406 12.9557 20.8263 12.9557 21.2056Z" fill="#3FCB54"/>
<path d="M83.7239 3.78911C83.7239 1.69502 82.017 0 79.9151 0V25.2673C82.017 25.2673 83.7239 23.5723 83.7239 21.4782V3.78911Z" fill="#3FCB54"/>
<path fill-rule="evenodd" clip-rule="evenodd" d="M43.5096 28.2385V22.9006C44.9399 23.8923 46.6784 24.4771 48.5551 24.4771C53.4308 24.4771 57.3859 20.5418 57.3859 15.6898C57.3859 10.8379 53.4308 6.90258 48.5551 6.90258C43.6795 6.90258 39.7244 10.8339 39.7244 15.6859V32C41.8145 32 43.5096 30.3129 43.5096 28.2346V28.2385ZM48.5551 10.668C45.7696 10.668 43.5096 12.9162 43.5096 15.6898C43.5096 18.4635 45.7696 20.7117 48.5551 20.7117C51.3407 20.7117 53.6007 18.4635 53.6007 15.6898C53.6007 12.9162 51.3407 10.668 48.5551 10.668Z" fill="#3FCB54"/>
<path fill-rule="evenodd" clip-rule="evenodd" d="M76.928 15.5476C76.9241 15.2236 76.9162 14.8996 76.8727 14.5756C76.3235 10.2492 72.6095 6.90258 68.1131 6.90258C63.2374 6.90258 59.2824 10.8379 59.2824 15.6898C59.2824 20.5418 63.2374 24.4771 68.1131 24.4771C70.1519 24.4771 72.0286 23.7896 73.5222 22.6359C74.1306 23.9081 75.4345 24.7892 76.9438 24.7892V16.6579L76.928 15.5476ZM63.0675 15.6898C63.0675 12.9162 65.3276 10.668 68.1131 10.668C70.8986 10.668 73.1587 12.9162 73.1587 15.6898C73.1587 18.4635 70.8986 20.7117 68.1131 20.7117C65.3276 20.7117 63.0675 18.4635 63.0675 15.6898Z" fill="#3FCB54"/>
<path d="M93.9494 10.668C92.0331 10.668 90.4803 12.2129 90.4803 14.1213V25.1014C88.3902 25.1014 86.6951 23.4142 86.6951 21.336V14.1213C86.6951 10.1346 89.943 6.90653 93.9494 6.90653C96.0751 6.90653 97.9835 7.81529 99.311 9.26139C100.639 7.81529 102.547 6.90653 104.673 6.90653C108.679 6.90653 111.927 10.1385 111.927 14.1213V21.336C111.927 23.4142 110.232 25.1014 108.142 25.1014V14.1213C108.142 12.2168 106.589 10.668 104.673 10.668C102.756 10.668 101.208 12.2089 101.204 14.1133V21.336C101.204 23.4142 99.5086 25.1014 97.4184 25.1014V14.1133C97.4184 12.2089 95.8617 10.668 93.9494 10.668Z" fill="#3FCB54"/>
</svg>
